#!OML:ASF E:\Style4\Style4.ASF
:FULLY-SPECIFIED
:DEGREES
3095
root -0.332686 17.2544 -0.755593 -2.45682 -0.658865 0.861187
lowerback 9.81747 3.92089 -7.16143
upperback 7.95472 4.7491 -3.99899
thorax 2.63554 2.18151 -0.531697
lowerneck 6.82718 -7.43601 -7.56678
upperneck 2.98651 -10.6517 14.2375
head 0.9344 -5.48816 5.54805
rclavicle -1.90833e-014 -2.54444e-014
rhumerus 22.5759 6.97142 -69.9368
rradius 123.611
rwrist 18.6706
rhand 20.0471 -2.66794
rfingers 7.12502
rthumb 44.579 -26.3314
lclavicle -1.90833e-014 -2.54444e-014
lhumerus -3.09448 -30.5399 84.7563
lradius 130.335
lwrist -13.2009
lhand 22.7674 42.3686
lfingers 7.12502
lthumb 47.1039 64.9889
rfemur -17.2422 -3.18682 19.1816
rtibia 44.6601
rfoot -22.5935 -16.0041
rtoes -11.5745
lfemur -16.4292 3.01521 -17.287
ltibia 43.1017
lfoot -23.1696 8.18887
ltoes -17.9161
3096
root -0.346017 17.2345 -0.773022 -2.53893 -0.475636 0.946856
lowerback 9.8004 4.09014 -7.15264
upperback 8.23273 4.99862 -3.9859
thorax 2.93261 2.29606 -0.534097
lowerneck 6.98164 -7.62114 -7.61251
upperneck 2.51231 -10.8609 14.1845
head 0.795245 -5.60979 5.55139
rclavicle -3.57812e-015 3.65764e-014
rhumerus 23.4024 7.77176 -69.3202
rradius 122.468
rwrist 18.1599
rhand 21.5548 -2.85657
rfingers 7.12502
rthumb 45.9806 -25.9592
lclavicle -3.57812e-015 3.65764e-014
lhumerus -2.88146 -30.4727 84.7796
lradius 130.233
lwrist -13.5612
lhand 22.6665 42.0917
lfingers 7.12502
lthumb 47.0105 64.7532
rfemur -17.4229 -3.32156 19.1247
rtibia 45.0944
rfoot -22.8202 -16.0289
rtoes -11.5798
lfemur -16.6207 3.08518 -17.3169
ltibia 43.4212
lfoot -23.1503 8.0687
ltoes -18.5733
3097
root -0.35885 17.2164 -0.789455 -2.60785 -0.396201 1.03036
lowerback 9.50326 4.29438 -7.30621
upperback 8.66878 5.32463 -3.81212
thorax 3.52243 2.42555 -0.260206
lowerneck 7.1105 -7.83272 -7.70492
upperneck 1.84638 -11.0879 13.9769
head 0.601065 -5.74202 5.51864
rclavicle -6.83819e-014 7.79236e-014
rhumerus 24.4276 8.51732 -68.4783
rradius 121.336
rwrist 17.624
rhand 23.242 -3.05089
rfingers 7.12502
rthumb 47.5424 -25.4744
lclavicle -6.83819e-014 7.79236e-014
lhumerus -2.50564 -30.1864 84.924
lradius 130.046
lwrist -13.9253
lhand 22.5665 41.6321
lfingers 7.12502
lthumb 46.918 64.3343
rfemur -17.631 -3.39707 19.0846
rtibia 45.5049
rfoot -22.8994 -16.1004
rtoes -11.6147
lfemur -16.7948 3.20528 -17.3376
ltibia 43.7158
lfoot -23.1433 7.92781
ltoes -18.9162
3098
root -0.370132 17.2001 -0.803517 -2.63379 -0.396213 1.14026
lowerback 9.62845 4.46141 -7.12918
upperback 8.76501 5.55432 -3.95438
thorax 3.57709 2.55221 -0.528154
lowerneck 7.23994 -8.01485 -7.6103
upperneck 1.57639 -11.3029 13.8698
head 0.514832 -5.85848 5.47968
rclavicle 7.55382e-015 -2.54444e-014
rhumerus 24.8175 9.30804 -68.2135
rradius 120.188
rwrist 17.1741
rhand 24.921 -3.06273
rfingers 7.12502
rthumb 49.0886 -24.7512
lclavicle 7.55382e-015 -2.54444e-014
lhumerus -2.55967 -30.0161 84.8287
lradius 129.961
lwrist -14.338
lhand 22.7296 41.6483
lfingers 7.12502
lthumb 47.0689 64.2841
rfemur -17.8842 -3.40256 19.007
rtibia 45.8996
rfoot -23.052 -16.0953
rtoes -11.3787
lfemur -16.9765 3.36793 -17.3959
ltibia 43.998
lfoot -23.1784 7.68595
ltoes -18.5196
3099
root -0.380336 17.1837 -0.816284 -2.71824 -0.381609 1.33532
lowerback 9.84599 4.62421 -7.11392
upperback 8.84626 5.7551 -4.04978
thorax 3.55114 2.65719 -0.665917
lowerneck 7.20629 -8.19495 -7.58695
upperneck 1.50958 -11.5336 13.753
head 0.519104 -5.97237 5.43542
rclavicle -1.19271e-014 3.18055e-014
rhumerus 25.0474 10.2222 -67.9746
rradius 119.089
rwrist 16.732
rhand 26.6868 -3.18758
rfingers 7.12502
rthumb 50.7051 -24.0321
lclavicle -1.19271e-014 3.18055e-014
lhumerus -2.62958 -29.8106 84.8969
lradius 129.818
lwrist -14.6431
lhand 22.9138 41.6466
lfingers 7.12502
lthumb 47.2392 64.2067
rfemur -18.0522 -3.46151 18.8117
rtibia 46.2879
rfoot -23.1852 -16.0618
rtoes -11.4465
lfemur -17.0707 3.50144 -17.5636
ltibia 44.2644
lfoot -23.2227 7.56281
ltoes -18.5049
3100
root -0.39072 17.1644 -0.827195 -2.77887 -0.351968 1.444
lowerback 11.3851 4.60802 -6.26676
upperback 8.03259 5.57514 -4.84179
thorax 2.00424 2.67402 -2.09129
lowerneck 7.34225 -8.27441 -6.99626
upperneck 2.27762 -11.6721 13.7754
head 0.702764 -6.02497 5.33656
rclavicle -1.66979e-014 4.29375e-014
rhumerus 23.9428 11.4961 -69.3071
rradius 118.136
rwrist 16.2376
rhand 28.3692 -3.29261
rfingers 7.12502
rthumb 52.2349 -23.2577
lclavicle -1.66979e-014 4.29375e-014
lhumerus -4.19491 -29.8249 84.4856
lradius 129.904
lwrist -14.795
lhand 23.0004 41.5156
lfingers 7.12502
lthumb 47.3193 64.0399
rfemur -18.2479 -3.51237 18.7252
rtibia 46.6687
rfoot -23.1963 -16.175
rtoes -12.0435
lfemur -17.2019 3.56341 -17.6266
ltibia 44.558
lfoot -23.3324 7.39364
ltoes -18.1078
3101
root -0.399406 17.1427 -0.83791 -2.86026 -0.369725 1.52388
lowerback 11.1793 4.79161 -6.42181
upperback 8.32838 5.84852 -4.63323
thorax 2.39365 2.78907 -1.78814
lowerneck 7.47067 -8.45304 -7.19274
upperneck 1.83059 -11.8875 13.6926
head 0.582324 -6.14794 5.35483
rclavicle -9.93923e-015 1.59028e-014
rhumerus 24.3054 12.3614 -68.8921
rradius 117.121
rwrist 15.3919
rhand 30.2904 -3.51108
rfingers 7.12502
rthumb 53.9679 -22.3708
lclavicle -9.93923e-015 1.59028e-014
lhumerus -4.19217 -29.4663 84.9293
lradius 129.778
lwrist -15.169
lhand 23.1198 41.3978
lfingers 7.12502
lthumb 47.4296 63.8724
rfemur -18.4369 -3.52238 18.6743
rtibia 47.0565
rfoot -23.2224 -16.2899
rtoes -12.5377
lfemur -17.3213 3.67907 -17.6534
ltibia 44.8678
lfoot -23.4457 7.23251
ltoes -17.7775
3102
root -0.407689 17.124 -0.848523 -2.94307 -0.362868 1.5767
lowerback 11.0671 5.00935 -6.38694
upperback 8.58266 6.17091 -4.50244
thorax 2.71159 2.94069 -1.68209
lowerneck 7.62796 -8.68844 -7.23543
upperneck 1.38922 -12.1706 13.6743
head 0.460898 -6.30487 5.3696
rclavicle 2.14687e-014 4.77083e-015
rhumerus 24.3217 13.0887 -68.6571
rradius 116.16
rwrist 14.9283
rhand 31.8675 -3.83553
rfingers 7.12502
rthumb 55.3777 -21.6975
lclavicle 2.14687e-014 4.77083e-015
lhumerus -4.17864 -29.3988 85.2694
lradius 129.597
lwrist -15.3244
lhand 22.9641 41.3951
lfingers 7.12502
lthumb 47.2857 63.9344
rfemur -18.5946 -3.5626 18.6479
rtibia 47.4422
rfoot -23.3842 -16.2539
rtoes -12.4103
lfemur -17.478 3.79607 -17.6743
ltibia 45.2017
lfoot -23.4835 7.28036
ltoes -18.4636
3103
root -0.414153 17.1068 -0.856794 -3.01568 -0.308616 1.60583
lowerback 10.8249 5.20123 -6.38523
upperback 8.92381 6.47539 -4.26853
thorax 3.17694 3.07424 -1.43131
lowerneck 7.66819 -8.91189 -7.46788
upperneck 0.965425 -12.4538 13.7465
head 0.380891 -6.45891 5.43382
rclavicle 6.75868e-014 -4.92986e-014
rhumerus 24.3544 13.8885 -68.2585
rradius 115.237
rwrist 14.5799
rhand 32.877 -4.23062
rfingers 7.12502
rthumb 56.2732 -21.4065
lclavicle 6.75868e-014 -4.92986e-014
lhumerus -4.14574 -29.321 85.7302
lradius 129.434
lwrist -15.3941
lhand 22.8165 41.4827
lfingers 7.12502
lthumb 47.1492 64.0829
rfemur -18.7295 -3.66508 18.6348
rtibia 47.8362
rfoot -23.5735 -16.2247
rtoes -12.2621
lfemur -17.6241 3.8526 -17.6841
ltibia 45.5204
lfoot -23.5246 7.32235
ltoes -18.9762
3104
root -0.419528 17.0882 -0.862815 -3.11011 -0.293705 1.68795
lowerback 10.2193 5.42491 -6.69464
upperback 9.5023 6.85064 -3.79456
thorax 4.03147 3.20435 -0.721367
lowerneck 7.59231 -9.12352 -7.91842
upperneck 0.360127 -12.7193 13.7588
head 0.276027 -6.60274 5.51185
rclavicle -8.5875e-014 -1.74931e-014
rhumerus 24.5992 14.5709 -67.537
rradius 114.407
rwrist 14.0569
rhand 33.9973 -4.51415
rfingers 7.12502
rthumb 57.2603 -20.8812
lclavicle -8.5875e-014 -1.74931e-014
lhumerus -3.84058 -29.1395 86.4576
lradius 129.281
lwrist -15.6243
lhand 22.8475 41.5435
lfingers 7.12502
lthumb 47.1779 64.1309
rfemur -18.8391 -3.70156 18.5568
rtibia 48.2191
rfoot -23.8259 -16.1387
rtoes -11.8825
lfemur -17.708 3.85421 -17.7493
ltibia 45.8163
lfoot -23.5576 7.35363
ltoes -19.3387
3105
root -0.424787 17.0708 -0.866887 -3.23244 -0.296207 1.81887
lowerback 10.3538 5.55771 -6.71924
upperback 9.60588 7.0163 -3.72071
thorax 4.05406 3.28241 -0.653443
lowerneck 7.61066 -9.23786 -7.93267
upperneck 0.158235 -12.8566 13.7472
head 0.229996 -6.6758 5.51406
rclavicle -2.46493e-014 2.38542e-014
rhumerus 24.0456 15.4124 -67.8534
rradius 113.669
rwrist 13.6612
rhand 35.1449 -4.67957
rfingers 7.12502
rthumb 58.2633 -20.1623
lclavicle -2.46493e-014 2.38542e-014
lhumerus -4.15871 -29.037 86.6892
lradius 129.209
lwrist -15.742
lhand 23.0159 41.5618
lfingers 7.12502
lthumb 47.3336 64.0797
rfemur -18.9189 -3.7214 18.4188
rtibia 48.5729
rfoot -24.0209 -16.0349
rtoes -11.5819
lfemur -17.7193 3.85198 -17.869
ltibia 46.0667
lfoot -23.5262 7.42496
ltoes -19.9128
3106
root -0.429688 17.0549 -0.869372 -3.33333 -0.274126 1.89535
lowerback 11.7418 5.54694 -6.09194
upperback 8.88246 6.85637 -4.27789
thorax 2.66572 3.2929 -1.72693
lowerneck 7.80395 -9.27612 -7.38481
upperneck 0.677253 -12.9146 13.8362
head 0.326482 -6.70088 5.45334
rclavicle 3.97569e-015 -3.18055e-014
rhumerus 22.1698 16.4947 -69.6958
rradius 113.136
rwrist 13.5387
rhand 36.1459 -5.00817
rfingers 7.12502
rthumb 59.1309 -19.6696
lclavicle 3.97569e-015 -3.18055e-014
lhumerus -5.71087 -29.1835 86.3275
lradius 129.27
lwrist -15.7159
lhand 23.1132 41.501
lfingers 7.12502
lthumb 47.4235 63.9784
rfemur -18.9882 -3.80921 18.3348
rtibia 48.8829
rfoot -24.1366 -16.004
rtoes -11.7924
lfemur -17.7302 3.83098 -17.9272
ltibia 46.2773
lfoot -23.7032 7.15862
ltoes -18.7397
3107
root -0.434459 17.0404 -0.867364 -3.4313 -0.299281 1.94886
lowerback 12.9283 5.57394 -5.88011
upperback 8.25208 6.74025 -4.48315
thorax 1.40537 3.27544 -2.19339
lowerneck 7.97079 -9.30843 -7.2158
upperneck 1.14749 -12.992 13.8601
head 0.435714 -6.73362 5.42966
rclavicle 2.06736e-014 4.77083e-015
rhumerus 20.3481 17.6363 -71.106
rradius 112.773
rwrist 13.4461
rhand 37.2712 -5.41146
rfingers 7.12502
rthumb 60.0972 -19.0893
lclavicle 2.06736e-014 4.77083e-015
lhumerus -7.31606 -29.1858 86.4416
lradius 129.35
lwrist -15.759
lhand 23.0641 41.5524
lfingers 7.12502
lthumb 47.3781 64.0503
rfemur -19.0312 -3.82285 18.2888
rtibia 49.1374
rfoot -24.137 -16.1404
rtoes -12.4329
lfemur -17.7017 3.83397 -17.9458
ltibia 46.4621
lfoot -24.1285 6.86506
ltoes -17.1312
3108
root -0.433806 17.0275 -0.860679 -3.56978 -0.332133 2.07055
lowerback 12.5263 5.6913 -6.11845
upperback 8.6688 6.94281 -4.17634
thorax 1.99999 3.34583 -1.7073
lowerneck 7.8978 -9.41933 -7.40788
upperneck 0.730577 -13.1165 13.8327
head 0.35066 -6.80291 5.45488
rclavicle -1.15295e-014 -1.43125e-014
rhumerus 19.8173 18.3453 -71.2571
rradius 112.435
rwrist 13.2706
rhand 38.2928 -5.73146
rfingers 7.12502
rthumb 60.9655 -18.4566
lclavicle -1.15295e-014 -1.43125e-014
lhumerus -7.32072 -29.074 86.7599
lradius 129.274
lwrist -15.7222
lhand 22.7293 41.8658
lfingers 7.12502
lthumb 47.0687 64.5017
rfemur -18.975 -3.83641 18.1311
rtibia 49.3465
rfoot -24.2257 -16.2242
rtoes -13.1258
lfemur -17.6011 3.85105 -18.0681
ltibia 46.6373
lfoot -24.3365 6.90425
ltoes -17.4707
